<svg xmlns="http://www.w3.org/2000/svg" xml:space="preserve" style="fill-rule:evenodd;clip-rule:evenodd;stroke-linejoin:round;stroke-miterlimit:2" viewBox="0 0 143 36"><path d="M119.532 8.021c1.069 0 1.964.878 1.964 1.962s-.895 1.982-1.964 1.982c-1.066 0-1.944-.896-1.944-1.982s.878-1.962 1.944-1.962m18.618 20.837c-.086.862-.483 1.43-2.103 1.877-1.274.414-1.118 1.085.173 1.137 3.48-.499 4.563-.414 7.68-.068 1.224-.018 1.017-.81.26-1.172-1.826-.706-2.118-.723-2.48-2.531l-.139-18.256c0-1.05.397-2.273-.723-1.997-2.083.827-2.256.896-4.149 1.55-1 .43-.622.913.102 1.154 1.017.413 1.103 1.033 1.155 1.773zm-10.713-.103c-.084.862-.481 1.43-2.101 1.877-1.273.415-1.12 1.085.173 1.137 3.478-.5 4.563-.413 7.68-.068 1.222-.018 1.017-.81.26-1.171-1.826-.707-2.12-.724-2.48-2.531l-.139-18.256c0-1.05.397-2.274-.723-1.998-2.083.827-2.255.896-4.151 1.55-1 .43-.62.913.103 1.154 1.017.413 1.103 1.034 1.153 1.774zm-9.763-7.182c-.086-.929-.207-1.653-1.276-1.963-.757-.069-1.118-.757-.034-1.171 2.171-.706 2.48-.827 4.151-2.17.516-.274 1.121-.052.827.879-.121.706-.103 1.034-.155 1.791l.018 9.507c.086 1.55 1.292 1.809 2.067 2.117.775.311.844 1.224-.069 1.242-3.376-.467-4.116-.517-7.372.138-1.085.017-1.325-.809.018-1.292 1.343-.482 1.792-.706 1.861-1.86zm-29.882-1.756c.757-8.112 5.96-11.505 13.279-12.107 7.715.052 8.819.568 8.715 4.874.052 1.55-.982 1.911-1.705.154-.827-1.583-1.516-2.497-3.48-3.306-6.647-1.498-11.572 2.773-11.866 10.04-.464 10.249 11.005 13.244 13.381 9.422.501-.999.501-3.652.432-5.838-.415-1.447-1.792-1.309-3.134-1.362-1.449.103-1.965-1.533-.018-1.516 1.876 0 5.494.173 10.143-.257 1.377.052 1.481 1.308-.207 1.498-.723.137-2.256.12-2.463 1.326-.171 6.234 1.276 6.837-3.426 8.542-5.995 1.412-12.453.757-16.102-2.772-1.637-1.447-3.685-4.771-3.549-8.698m-15.481 4.167c.672-6.751 6.268-8.335 9.146-8.353 3.409.103 4.494 1.223 4.528 2.359.035 1.138-.775 1.74-1.654 1.498-1.878-.481-1.515-2.463-4.013-2.617-2.823.413-4.528 3.581-4.047 7.37.483 3.789 4.151 6.614 8.628 4.307 1.085-.242 1.172.654.294 1.274-8.233 5.065-13.227-2.152-12.882-5.838m-25.42-11.331c-.172-2.325-.895-1.619-2.668-2.325-1.43-.276-1.55-1.309-.139-1.361 2.55.188 3.824.224 5.941-.103.965.155 1.379.552 1.739 1.481 1.775 3.754 4.358 9.387 6.132 13.14.309.673.482.809.878-.052l5.235-13.381c.587-1.136 1.223-1.412 3.049-1.24 3.151.052 3.926-.035 5.476-.207 1.343.052 1.256 1.085-.069 1.447-2.033.018-3.099.706-3.41 2.221l.293 15.364c.327 2.29 1.516 2.359 3.651 2.911.964.43.757 1.102-.069 1.326-4.46-.516-6.01-.483-10.436-.052-1.275.121-1.361-.982.018-1.274 1.636-.362 2.049-.655 2.41-1.517l-.326-14.81c-.052-.586-.415-.586-.638.103l-6.251 15.62c-.586 1.326-.843 1.326-1.481.293l-7.387-15.999c-.225-.552-.5-.379-.535-.035l.069 14.122c.206 1.636 1.344 1.739 3.652 2.463.654.207.688.757.154 1.102-4.513-.379-5.236-.379-9.421.155-.654 0-.963-.964.053-1.102 2.222-.636 2.824-.671 3.151-1.946zM8.298 20.11c-1.167-4.151-.49-7.993-.49-12.64v-.152l.136-.068c4.17-2.072 8.297-2.266 12.771-2.266 3.871 0 9.359.508 12.665 2.263l.119.064.01.134c.338 4.382.53 8.238-.595 13.217-1.129 4.994-4.411 11.894-11.899 16.99l-.135.092-.138-.09C12.576 32.302 9.905 25.834 8.298 20.11m.473-.132c1.572 5.599 4.175 11.926 12.104 17.175 7.261-4.998 10.458-11.722 11.56-16.599 1.101-4.872.923-8.658.595-12.936-3.257-1.672-8.562-2.143-12.315-2.143-4.348 0-8.365.174-12.416 2.148-.015 4.53-.67 8.292.472 12.355" style="fill:#000" transform="translate(-7.922 -3.276)scale(1.04058)"/><path d="m12.405 13.988 4.287 4.29 3.943-4.262 3.957 4.316 4.297-4.354 4.231 4.612c-.543 4.222-3.304 12.813-12.276 18.989C11.79 31.695 9.053 22.916 8.158 18.754zm9.106 8.225c-.203 1.629 1.22 1.761 1.566 2.443-.152.271-.414.023-.417.274.142.265.689.303.55.495-.205.149-.205.319-.205.319.177.152.814.133 1.161-.132.407.131 1.087.538 1.435-.144-.215-.131-.479-.274-.622-.539.682-.274 2.045-.274 2.727 0 .345.133 1.406.478 1.912.814-.275-.549-.704-1.091-1.088-1.495.203-.274.674-.308.813-.68-1.125.128-2.379.548-2.726-.54.347-.274.754-.549.958-1.221-.204 0-.478.143-.683 0 .132-.263.335-.539.479-.813-.754 0-2.869 1.627-3.479.406.274-1.221-.785-1.511-1.107-1.529-.32-.017-.521.014-.742.133-.219.118-.222.305-.349.328a.56.56 0 0 0-.383.282c.238.121.343.111.387.229s-.187.292-.247.425c.122 0 .265.131.326.275-.062.132-.205.538-.266.67m.948-1.937a.14.14 0 0 1 0 .278.139.139 0 0 1 0-.278m-5.561 8.756c-.203 1.628 1.22 1.76 1.566 2.443-.152.27-.413.022-.417.274.142.265.689.301.55.495-.204.149-.204.319-.204.319.176.152.813.132 1.16-.133.407.132 1.087.539 1.435-.143-.215-.133-.478-.274-.622-.539.682-.274 2.045-.274 2.727 0 .345.132 1.406.478 1.912.814-.274-.549-.704-1.092-1.088-1.495.203-.275.674-.308.814-.681-1.126.128-2.38.549-2.727-.541.347-.274.754-.548.958-1.219-.204 0-.478.142-.683 0 .132-.265.336-.54.479-.815-.754 0-2.869 1.628-3.479.407.274-1.222-.785-1.512-1.107-1.53-.32-.016-.521.015-.742.132-.219.12-.222.307-.349.33a.55.55 0 0 0-.383.281c.238.122.343.112.387.231s-.187.292-.247.424c.122 0 .265.131.326.274-.062.133-.205.54-.266.672m.957-1.938a.127.127 0 0 1 0 .254.13.13 0 0 1-.127-.127c0-.069.058-.127.127-.127m-5.975-5.077c-.203 1.627 1.221 1.759 1.564 2.441-.151.272-.413.024-.416.275.142.265.689.302.549.495-.203.149-.203.319-.203.319.176.152.814.132 1.161-.133.406.132 1.087.538 1.434-.142-.215-.133-.479-.275-.621-.539.681-.276 2.044-.276 2.726 0 .346.132 1.406.477 1.912.813-.275-.549-.704-1.091-1.088-1.496.203-.274.675-.307.813-.681-1.124.129-2.378.548-2.725-.539.347-.274.753-.549.956-1.221-.203 0-.477.144-.681 0 .131-.263.335-.539.478-.814-.753 0-2.869 1.629-3.479.408.275-1.222-.784-1.513-1.106-1.53-.32-.017-.523.013-.743.132s-.222.306-.348.329a.56.56 0 0 0-.384.281c.238.123.343.112.388.231.044.118-.187.292-.248.424.122 0 .264.132.325.275-.061.132-.203.539-.264.672m.966-1.937c.074 0 .136.06.136.135a.136.136 0 0 1-.271 0c0-.076.062-.135.135-.135M12.379 11.115c.646-.002 1.876.096 2.167.306.102-.163.848-1.56.92-1.959-.268-.102-.515.251-.624.278-.19-.295-.377-.295-.469-.281-.159.047-.074.102-.01.121 1.003.848-.482 1.69-.74.838-1.278.105-.946-.922-.617-1.051.217-.063.042-.098-.027-.121-.081-.017-.24-.028-.261.04.02-.506-.041-.896-.343-1.065-.303.17-.358.563-.337 1.069-.021-.068-.179-.059-.259-.041-.067.023-.244.057-.029.122.33.129.662 1.157-.616 1.051-.259.851-1.742.01-.74-.839.067-.018.153-.074-.006-.122-.096-.012-.278-.012-.47.282-.109-.027-.357-.38-.625-.278.075.4.819 1.796.919 1.959.293-.211 1.521-.308 2.167-.309m0 1.085c.47-.002 1.208.046 1.652.184.109-.23.303-.617.407-.773-.38-.226-1.547-.295-2.057-.293-.512.001-1.679.069-2.059.296.103.156.3.544.405.773.446-.138 1.182-.186 1.652-.187m1.163-1.567.304.433-.681-.064zm-.404.907a.24.24 0 0 0-.242.237c0 .139.108.239.242.239a.236.236 0 0 0 .232-.239.24.24 0 0 0-.232-.237m.724.15a.23.23 0 0 0-.228.232.23.23 0 0 0 .228.228.227.227 0 0 0 .226-.228.227.227 0 0 0-.226-.232m-1.482 1.124c-.904.002-1.576-.087-1.576-.199s.668-.225 1.576-.227c.909-.001 1.576.113 1.576.225s-.673.199-1.576.201m-.003-1.314c.128 0 .236.105.236.235a.24.24 0 0 1-.236.238.24.24 0 0 1-.235-.238c0-.13.111-.235.235-.235m-.735.04c.133 0 .238.107.238.237a.233.233 0 0 1-.238.239.24.24 0 0 1-.233-.239c0-.129.114-.237.233-.237m-.725.15c.127 0 .228.102.228.232a.23.23 0 0 1-.228.228.226.226 0 0 1-.224-.228.225.225 0 0 1 .224-.232m1.456-1.538.491.836h-.962zm-1.134.481-.305.433.681-.064zM28.882 11.115c.645-.002 1.875.096 2.169.306.102-.163.846-1.56.918-1.959-.267-.102-.515.251-.625.278-.189-.295-.376-.295-.468-.281-.159.047-.074.102-.01.121 1.003.848-.481 1.69-.738.838-1.28.105-.947-.922-.618-1.051.217-.063.04-.098-.027-.121-.082-.017-.241-.028-.262.04.021-.506-.04-.896-.343-1.065-.303.17-.357.563-.337 1.069-.02-.068-.178-.059-.26-.041-.067.023-.243.057-.028.122.332.129.662 1.157-.616 1.051-.258.851-1.741.01-.741-.839.065-.019.153-.074-.007-.122-.095-.013-.276-.013-.471.282-.108-.027-.355-.381-.625-.278.074.4.821 1.796.92 1.959.294-.211 1.524-.308 2.169-.309m-.001 1.085c.472-.002 1.208.046 1.654.184.107-.23.302-.617.407-.773-.38-.226-1.548-.295-2.059-.293-.51.001-1.678.069-2.058.296.104.156.299.544.405.773.444-.138 1.181-.186 1.651-.187m1.163-1.567.305.433-.683-.064zm-.404.907a.24.24 0 0 0-.241.237.236.236 0 1 0 .473 0 .24.24 0 0 0-.232-.237m.725.15a.23.23 0 0 0-.229.232.23.23 0 0 0 .229.228.227.227 0 0 0 .225-.228.227.227 0 0 0-.225-.232m-1.482 1.124c-.903.002-1.576-.087-1.576-.199s.668-.225 1.576-.227c.91-.001 1.576.113 1.576.225s-.672.199-1.576.201M28.88 11.5a.236.236 0 0 1 0 .473.24.24 0 0 1-.234-.238c0-.13.111-.235.234-.235m-.734.04a.238.238 0 0 1 0 .476.24.24 0 0 1-.233-.239c0-.129.114-.237.233-.237m-.724.15c.125 0 .227.102.227.232a.227.227 0 1 1-.453 0 .226.226 0 0 1 .226-.232m1.453-1.538.493.836h-.961zm-1.133.481-.305.433.681-.064zM20.708 12.346c.212.146.284.22.26.411h-.485c-.043-.173.032-.237.225-.411m2.796-5.347v5.164c-.426.072-.766.078-1.342-.06-.577-.139-.984-.208-1.353-.031V6.856c.427-.19.963-.102 1.556.156.546.237 1.139-.013 1.139-.013m-1.851 2.757h.141v-.285h.302v-.119h-.302v-.156h.34v-.122h-.481zm.645.075h.145v-.683h-.145zm-.516 1.348c.278-.033.353-.636-.01-.68h-.322v.68zm-.193-.115v-.443h.133c.206 0 .192.443.007.443zm.563-.095c.006.126.08.323.325.329.241-.007.322-.186.329-.343.018-.244-.145-.366-.322-.366-.228-.01-.346.191-.332.38m.138-.05c.018-.169.119-.197.194-.196.17 0 .183.152.183.227 0 .124-.064.221-.183.221-.15 0-.194-.126-.194-.252m-1.223-2.957c-.007.251.138.38.318.38.171 0 .303-.143.286-.261h-.141c-.006.105-.08.132-.155.132-.109 0-.17-.116-.17-.221 0-.146.082-.244.187-.244.102 0 .138.075.138.126h.141c-.008-.153-.115-.248-.286-.248-.193 0-.312.122-.318.336m.667.115c.007.126.083.323.326.329.241-.006.323-.187.329-.342.017-.245-.145-.367-.321-.367-.229-.01-.346.191-.334.38m.14-.051c.018-.169.118-.197.193-.197.169 0 .183.153.183.227 0 .125-.065.221-.183.221-.149 0-.193-.125-.193-.251m.661.437h.146v-.461l.275.461h.139v-.681h-.139v.461l-.282-.461h-.139zm1.146-1.462.451.429v5.171l-.451-.424zm.346 5.742-2.865.003c.01-.213-.126-.39-.343-.516.401-.179.648-.105 1.254.011.363.068 1.127.228 1.479.085zm-6.623.004.474-.419c.352.144 1.116-.016 1.479-.084.607-.115.855-.19 1.254-.01-.217.126-.353.302-.342.516zm.316-5.704v5.174l-.451.425V7.47zm.175-.044s.6.25 1.147.013c.594-.258 1.128-.346 1.556-.156v5.216c-.369-.177-.777-.108-1.352.031-.578.139-.917.132-1.343.06zm1.558 3.848c.006.125.08.324.324.329.242-.006.322-.187.33-.342.018-.245-.145-.367-.322-.367-.228-.008-.347.191-.332.38m.138-.05c.017-.17.119-.197.194-.196.169 0 .183.152.183.226 0 .126-.064.221-.183.221-.149 0-.194-.125-.194-.251m-1.149.515h.146v-.681h-.146zm.306-.085h.146v-.461l.274.461h.141v-.681h-.141v.462l-.281-.462h-.139zm-.08-2.838.146-.001v-.68h-.146zm.304-.081h.145v-.463l.275.463h.139v-.682h-.139v.462l-.282-.462h-.138zm-.507 1.523c.279-.034.354-.638-.01-.683h-.322v.683zm-.193-.116v-.444h.133c.206 0 .193.444.007.444zm.519-.329c.007.126.081.322.325.329.241-.007.322-.188.329-.343.018-.244-.145-.366-.322-.366-.227-.009-.346.19-.332.38m.139-.051c.017-.169.118-.196.193-.196.17 0 .185.152.185.226 0 .126-.066.22-.185.22-.149 0-.193-.124-.193-.25m.648.336h.139v-.543l.118.543h.146l.118-.543v.543h.141v-.682h-.204l-.125.516-.126-.516h-.207z" style="fill:#000" transform="translate(-7.922 -3.276)scale(1.04058)"/></svg>
