<svg xmlns="http://www.w3.org/2000/svg" viewBox="24 24 208 208"><path d="M201.54 54.46A104 104 0 1 0 54.46 201.54 104 104 0 1 0 201.54 54.46M128 170.869a31.93 31.93 0 0 0-32.313-9.766L110.965 128h34.07l15.278 33.102A31.93 31.93 0 0 0 128 170.868m40 35.502a87.9 87.9 0 0 1-32 9.218V192a16 16 0 0 1 32 0Zm22.225-16.144A89 89 0 0 1 184 195.87V176a8 8 0 0 0-.736-3.353l-48-104-.024-.042a8 8 0 0 0-.495-.897l-.12-.178a8 8 0 0 0-.549-.724q-.044-.055-.089-.108a8 8 0 0 0-.735-.727l-.133-.11a8 8 0 0 0-.692-.514q-.097-.067-.198-.13a8 8 0 0 0-.876-.48l-.017-.007-.071-.029a8 8 0 0 0-.884-.33q-.127-.04-.256-.074a8 8 0 0 0-.875-.193c-.043-.006-.084-.017-.127-.023a8 8 0 0 0-1.043-.075c-.027 0-.053-.006-.08-.006-.043 0-.085.009-.128.01a8 8 0 0 0-.905.065c-.056.007-.113.01-.17.02a8 8 0 0 0-.97.212q-.124.037-.246.077a8 8 0 0 0-.764.287c-.066.028-.134.053-.199.084a8 8 0 0 0-.872.475l-.162.109a8 8 0 0 0-.7.52l-.145.12a8 8 0 0 0-.734.727q-.037.044-.073.09a8 8 0 0 0-.552.727q-.071.105-.139.211a8 8 0 0 0-.505.913l-22.154 48-.002.006-25.844 55.994A8 8 0 0 0 72 176v19.87a89 89 0 0 1-6.225-5.644 88 88 0 1 1 124.45 0"/></svg>